<svg xmlns="http://www.w3.org/2000/svg" width="24" height="24" viewBox="0 0 1024 1024"><path d="M630 630c28 26 56 58 76 102 16-44 44-76 72-102 28-22 56-36 80-50-24-12-52-28-80-50-28-24-56-58-72-102-20 44-48 78-76 102-28 22-56 38-80 50 24 14 52 28 80 50zM690 774c-14-56-44-96-78-124-34-30-72-46-106-56l-40-14 40-12c34-10 72-28 106-58 34-28 64-68 78-122l16-44 12 44c14 54 44 94 78 122 34 30 72 48 106 58l40 12-40 14c-34 10-72 26-106 56-34 28-64 68-78 124l-12 42zM304 256c12 10 22 24 30 38 10-12 18-24 28-34s22-18 32-26c-10-4-20-12-30-22s-20-24-30-36c-8 12-16 24-26 34s-22 16-32 24c10 8 18 12 28 22zM322 328c-8-22-20-38-36-52-14-12-30-22-46-30l-30-12 30-12c18-8 34-18 48-34 14-12 26-26 34-46l12-28 12 28c10 22 22 36 38 52 12 12 30 22 46 28l26 12-26 12c-18 8-36 18-52 34-12 12-22 26-32 48l-12 26zM522 256c-4 6-12 8-22 8s-64 2-100 42c-22 24-36 56-36 106v6c-2 4-6 12-10 14-2 6-10 8-18 8-10 0-14-2-20-8-8-4-10-12-10-20 0-52-14-84-34-108-36-38-92-40-102-40-6 0-14-2-20-10-4-4-6-12-6-20s2-14 6-20c6-4 10-8 18-10h2c10 0 66 0 102-40 20-22 34-56 34-106 0-8 2-14 10-22 6-6 12-8 20-8s16 2 20 8c6 8 10 14 10 22 0 50 12 84 34 106 36 40 92 40 100 40 6 0 14 6 22 10 6 6 8 12 8 20s-2 16-8 22zM500 240c2 0 2 0 2-4 0 0 0 0 0-2 0 0 0 0 0-2 0 0 0 0-2 0-10 0-76-2-118-50-26-26-44-66-44-124 0-2 0-2 0-2-2 0-2 0-2 0s-2 0-2 0c0 0 0 0 0 2 0 58-18 98-42 124-46 48-108 50-122 50 0 0 0 0-2 0 0 2 0 2 0 2s0 2 2 2c14 0 76 4 122 50 24 28 42 66 42 126 0 0 2 2 2 2v-2c0-58 20-98 42-122 46-48 112-50 122-50zM160 814c14 10 24 22 34 38 6-12 14-24 24-34s22-20 36-24c-10-8-20-16-30-22-14-10-24-24-30-38-8 12-18 24-28 34s-20 18-32 26c10 4 20 12 26 20zM180 886c-10-22-22-40-36-52s-32-22-46-30l-28-12 28-10c18-8 36-18 50-34 12-12 22-30 32-48l14-30 12 30c8 22 20 38 34 52 16 12 32 22 46 30l30 12-30 12c-18 6-32 18-48 30-12 16-24 30-32 50l-12 28zM258 722c36 40 90 40 100 40 8 0 16 4 20 10 6 4 8 12 8 20 0 6-2 14-8 22-4 4-12 8-20 8h-2c-8 0-62 2-100 42-20 22-36 56-36 106 0 2 0 8 0 10-2 4-4 10-10 12-2 6-6 6-14 6h-6c-4 0-12-4-16-8-6-6-10-12-10-20 0-54-14-86-34-108-38-38-90-40-100-40-8 0-14-4-22-10-6-6-8-14-8-20 0-8 2-16 8-20 4-6 12-8 18-10h4c8 0 62 0 100-40 20-24 34-56 34-106 0-8 4-16 10-22 4-6 12-8 20-8 6 0 14 2 20 8s10 14 10 22c0 50 14 82 34 106zM358 788c-10 0-74-2-120-50-24-24-42-64-42-122 0-2 0-2 0-2s-2 0-2 0c0 0 0 0-4 0 0 0 0 0 0 2 0 58-16 98-42 122-42 48-108 50-118 50-2 0-2 0-2 0 0 4 0 4 0 4s0 2 0 2c0 0 0 0 2 0 10 0 76 2 118 50 26 28 42 66 42 126 4 0 4 2 4 2h2v-2c0-58 18-98 40-124 46-48 110-50 120-50h2c0 0 0 0 0-2 4 0 4 0 4-2 0 0 0 0-4-4zM1006 556c6 2 10 4 12 10 4 4 4 10 6 14 0 6-2 10-6 16v2c-2 2-6 8-12 10-2 2-8 2-12 2-18 0-124 6-194 80-38 44-64 106-64 202 0 8-6 14-10 20-6 4-14 10-20 10-8 0-16-6-20-10-6-6-10-12-10-20 0-96-28-158-66-202-70-74-176-80-194-80-4 0-12 0-14-4-6-2-10-6-12-10-4-6-4-10-4-16 0-4 0-10 4-12v-2l2-4c2-2 2-4 8-4 2-2 4-6 6-6 4-2 6-2 10-2 16 0 122-2 192-80 38-40 68-102 68-200 0-8 2-16 6-20 6-6 14-8 24-8 6 0 14 2 20 8 4 4 6 12 6 20 0 98 30 160 68 200 70 78 176 80 194 80h2c2 2 8 2 10 6zM994 578h-2c-26 0-134-8-212-88-42-48-72-116-72-220 0 0-2 0-2 0 0-4 0-4 0-4-4 0-4 0-4 4 0 0-2 0-2 0 0 104-30 172-72 218-78 84-194 90-212 90h-2v2h-2l2 4c0 0 2 2 2 2 20 0 134 2 212 88 42 44 74 114 74 218 0 0 0 2 0 2s4 0 4 0c0 0 2 0 2 0s0-2 0-2c0-104 32-174 76-218 76-86 190-88 210-88v-2h2c0-4 0-4-2-6z"></path></svg>