
<svg xmlns="http://www.w3.org/2000/svg" width="24" height="24" viewBox="0 -200 900 900"><path d="M752 390h-40c-6 40-40 70-82 70s-76-30-82-70h-274c-6 40-40 70-82 70s-76-30-82-70h-46c-36 0-64-28-64-62v-260c0-38 30-68 68-68h538c32 0 62 20 76 50l48 102 56 56c18 18 30 44 30 68v52c0 34-28 62-64 62zM274 358h274c10-38 42-66 82-66 42 0 76 32 82 72h40c20 0 38-16 38-36v-52c0-18-8-36-22-48l-58-60c-2 0-2-2-2-2l-48-104c-10-22-32-36-54-36h-538c-22 0-42 20-42 42v260c0 20 18 36 38 36h46c6-40 40-72 82-72 40 0 74 28 82 66zM688 378v-2c0-32-26-58-58-58s-56 26-58 58c0 2 0 2 0 2 2 32 26 56 58 56s58-24 58-56zM192 318c-32 0-58 26-58 58s26 58 58 58c32 0 58-26 58-58s-26-58-58-58z"></path></svg>