<svg xmlns="http://www.w3.org/2000/svg" height="24" viewBox="0 0 1024 1024" width="24"><path d="M1006 718l-68 36c-20 50-56 98-96 134v106c0 18-12 30-30 30h-120c-14 0-24-8-28-20l-14-40c-4 0-12 0-16 0h-182c-6 0-14 0-18 0l-12 40c-6 12-16 20-32 20h-118c-18 0-30-12-30-30v-106c-76-64-120-156-120-254 0-10 2-22 2-32h-64c-32 0-60-26-60-60v-30c0-50 40-90 90-90 16 0 32 14 32 30 0 18-16 30-32 30s-30 12-30 30v30h74c12-46 34-86 66-124-48-42-78-106-78-176 0-134 108-242 242-242 130 0 238 108 238 242 0 20-2 40-6 60h38c4 0 12 0 20 0 20-38 60-60 106-60h112c10 0 18 6 26 12 4 8 4 18 2 28l-40 112c28 24 48 54 66 88h68c18 0 30 12 30 30v180c0 12-6 22-18 26zM722 512c0 18 14 30 30 30 18 0 30-12 30-30s-12-30-30-30c-16 0-30 12-30 30zM370 146c-14 0-30 6-40 12-8 6-12 14-18 22-4 10-10 16-10 24h102l-6 20h-98c0 4 0 6 0 6 0 8 0 12 0 14h96l-6 20h-88c6 24 16 38 30 48 14 6 24 10 38 10 18 0 34-4 44-14v30c-12 6-28 8-40 8-46 0-76-18-92-56-2-8-8-16-8-26h-22l2-20h16c0-4 0-10 0-14 0 0 0-2 0-6h-18l2-20h18c6-30 24-56 48-68 16-10 34-12 54-12 16 0 32 2 44 10l-4 28c-12-10-26-16-44-16zM364 60c-102 0-182 82-182 182 0 98 80 180 182 180 98 0 178-82 178-180 0-100-80-182-178-182zM964 542h-56c-12 0-22-8-28-18-18-38-42-72-76-98-10-10-12-22-6-36l32-88h-70c-28 0-52 16-62 42-2 14-16 22-30 20-12 0-24 0-34 0h-64c-42 70-118 118-206 118-44 0-82-10-114-28-34 36-54 78-64 124 0 0 0 0 0 2-2 16-4 32-4 54 0 82 40 164 108 216 8 6 12 12 12 22v92h68l16-44c2-12 18-22 30-20s26 6 36 6h182c10 0 22-4 32-6 16-2 28 8 32 20l16 44h68v-92c0-10 4-16 12-22 40-32 74-78 92-128 2-8 6-14 14-18l64-30z"></path></g></svg>