<svg xmlns="http://www.w3.org/2000/svg" width="24" height="24" viewBox="0 0 1024 1024"><path d="M678 834l94-88v-2h2v-2l2-2v-4h2v-2l2-2v-2l4-2v-8h2v-16l-2-2 8-18c0-2 2-2 6-2 0 0 2 0 4 2l42 86c2 4 4 6 10 6l94 14c2 0 2 2 4 4 0 0 0 4-2 6l-68 64c-4 4-4 10-4 14l16 92c0 4-2 6-2 6s-2 2-4 0l-84-44c-4-2-10-2-14 0l-84 44c-2 2-4 0-4 0-2 0-2-2-2-6l16-92c0-4-2-10-4-14zM232 684l8 18v24h4v4l2 2v2h2v6h2v2h2v2h2v2l92 88-30 30c-6 4-8 10-6 14l16 92c0 4-2 6-2 6s-2 2-4 0l-84-44c-4-2-10-2-16 0l-84 44c0 2-2 0-4 0 0 0-2-2 0-6l16-92c0-4-2-10-4-14l-70-64c0-2 0-6 0-6 0-2 0-4 2-4l96-14c4 0 8-2 10-6l42-86c0-2 2-2 6-2 0 0 2 0 2 2zM762 672l-2-2h-2l-2-2h-6l-2-2h-2l-46-8v-64l52-12c0 8 8 16 18 16 8 0 16-8 16-16v-112c0-32-22-62-52-76l-126-58c-8-4-10-10-10-16v-44c30-26 50-62 50-106v-68c0-56-18-92-18-92-2-8-10-10-14-10h-130c-16 0-30 4-42 14-2 0-2 0-2 0-22 2-64 20-64 78v78c0 44 18 80 50 106v44c0 6-4 12-12 16l-126 58c-30 14-50 44-50 76v100c0 10 8 16 18 16 6 0 14-6 14-16l54 20v68l-46 8h-4v2h-8v2h-4v2h-2v-2c-8-12-18-22-32-22s-28 10-34 22l-38 76-86 14c-12 2-24 12-28 24-4 14-2 28 10 36l60 60-14 86c-2 14 2 28 14 36 6 4 14 6 22 6 6 0 12 0 16-4l78-40 76 40v2h4v2h24v-2h2l2 2v2h2v2h6v2c14 10 34 12 48 4l118-60 118 60c8 4 14 6 22 6 10 0 20-4 26-10h4v-2h2v-2h2v-2h2v-2c12 4 24 4 32-2l78-40 76 40c4 4 8 4 16 4 6 0 14-2 20-6 12-8 16-22 14-36l-14-86 64-60c8-8 14-22 8-36-4-12-16-22-30-24l-86-14-36-76c-8-12-20-22-32-22-14 0-28 10-34 22zM378 820l-82-78-20-42h4v-2h4l140-22c6 0 12-4 14-8l62-128c2-4 8-8 12-8 6 0 12 4 14 8l62 128c2 4 8 8 12 8l142 22h4v2h2l-20 42-82 78c-2 4-4 10-4 14l26 142c0 4-4 8-8 14-4 2-8 2-14 0l-128-66c-2-2-4-2-6-2s-4 0-6 2l-126 66c-4 2-12 2-16 0-4-6-8-10-4-14l22-142c0-4 0-10-4-14zM424 56c0 4 4 8 10 8 6 4 16 0 18-8 6-14 18-24 34-24h118c6 12 10 32 12 58-20 8-78 22-142-4-6-2-16 0-20 6 0 0-16 26-46 38v-38c0-16 6-28 16-36zM408 170v-6c34-8 56-32 66-44 62 22 114 12 142 6v44c0 58-46 104-104 104-56 0-104-46-104-104zM512 306c18 0 38-4 54-12v26c0 18 10 36 30 44v2c-10 34-44 60-84 60s-72-26-84-60l2-2c20-8 32-26 32-44v-26c16 8 32 12 50 12zM356 580v-24c0-10-6-16-16-16-6 0-14 6-14 16l-54-20v-66c0-20 12-38 32-48l96-44c16 48 62 80 112 80 54 0 98-32 114-80l96 44c20 10 30 28 30 48v80l-52 10c0-8-8-16-16-16-10 0-16 8-16 16v94l-54-8-60-120c-8-16-24-26-42-26-16 0-32 10-42 26l-58 120-56 8z"></path></svg>