<svg xmlns="http://www.w3.org/2000/svg" viewBox="0 0 50 50.18" width="24" height="24">
<path d="m34.32,39.34c-.09-.08-.18-.15-.28-.23-2.11-1.7-3.75-2.48-5.16-2.48-1.72,0-2.85,1.15-4.05,2.36-.13.13-.25.26-.39.39-.16.17-.37.24-.65.24-1.01,0-3.16-.96-7.72-5.52-2.06-2.06-3.57-3.82-4.48-5.22-.58-.89-1.45-2.48-.79-3.14.13-.13.26-.26.39-.39,2.18-2.15,4.07-4.01-.12-9.22-.14-.17-.27-.32-.4-.47,2.69-6.73,9.27-11.5,16.95-11.5,10.05,0,18.23,8.18,18.23,18.23,0,7.68-4.78,14.27-11.52,16.95m-10.4-15.95c.94-1.02,1.62-1.85,2.03-2.48.43-.67.65-1.41.65-2.2,0-1.17-.39-2.12-1.17-2.83-.77-.7-1.83-1.05-3.16-1.05s-2.43.41-3.24,1.23c-.81.82-1.2,1.83-1.17,3v.04s.1.29.1.29h2.89v-.3c0-.56.13-1.02.38-1.35.24-.31.58-.46,1.05-.46.42,0,.73.13.95.38.23.27.34.62.34,1.07,0,.33-.11.71-.32,1.11-.23.43-.62.96-1.17,1.59l-4.02,4.31v2.01h8.9v-2.47h-4.79l1.75-1.9Zm7.09-.74l1.97-3.12v3.12h-1.97Zm4.99-7.64h-2.92l-5.19,8.28.14,1.84h4.94v2.64h3.02v-2.64h1.38v-2.47h-1.38v-7.64Zm14,7.38C50,10.05,39.96,0,27.61,0,18.44,0,10.54,5.54,7.08,13.45c-.13-.02-.27-.03-.4-.03-2,0-3.53,1.61-4.87,3.02-.24.25-.46.48-.67.7-1.52,1.52-1.51,4.84.01,8.88,1.68,4.46,5,9.31,9.35,13.65,7.75,7.75,15.11,10.5,19.06,10.5h0c1.53,0,2.73-.39,3.47-1.14.22-.22.45-.44.7-.67,1.46-1.38,3.11-2.96,3.02-5.02,0-.16-.03-.33-.05-.49,7.83-3.49,13.3-11.35,13.3-20.46Z"/>
</svg>