<svg xmlns="http://www.w3.org/2000/svg" width="24" height="24" viewBox="0 0 1024 1024"><path d="M426 782c12 10 26 18 40 18 16 0 30-8 42-18l206-206c22-24 22-60 0-82s-58-22-84 0l-164 166-76-76c-22-22-58-22-80 0s-22 58 0 80zM912 64h-56v-34c0-18-12-30-30-30-16 0-28 12-28 30v34h-60v-34c0-18-14-30-32-30-14 0-28 12-28 30v34h-334v-34c0-18-12-30-30-30-16 0-28 12-28 30v34h-60v-34c0-18-14-30-32-30-14 0-28 12-28 30v34h-54c-54 0-98 44-98 98v760c0 54 44 98 98 98h800c54 0 98-44 98-98v-760c0-54-44-98-98-98zM950 922c0 22-18 40-38 40h-800c-22 0-38-18-38-40v-608h876zM74 162c0-20 16-36 38-36h54v34c0 14 14 30 28 30 18 0 32-16 32-30v-34h60v34c0 14 12 30 28 30 18 0 30-16 30-30v-34h334v34c0 14 14 30 28 30 18 0 32-16 32-30v-34h60v34c0 14 12 30 28 30 18 0 30-16 30-30v-34h56c20 0 38 16 38 36v94h-876z"></path></svg>