<?xml version="1.0" standalone="no"?>
<!DOCTYPE svg PUBLIC "-//W3C//DTD SVG 20010904//EN"
 "http://www.w3.org/TR/2001/REC-SVG-20010904/DTD/svg10.dtd">
<svg version="1.0" xmlns="http://www.w3.org/2000/svg"
 width="400.000000pt" height="400.000000pt" viewBox="0 0 400.000000 400.000000"
 preserveAspectRatio="xMidYMid meet">
<metadata>
Created by potrace 1.14, written by Peter Selinger 2001-2017
</metadata>
<g transform="translate(0.000000,400.000000) scale(0.100000,-0.100000)"
fill="#000000" stroke="none">
<path d="M0 2000 l0 -2000 2000 0 2000 0 0 2000 0 2000 -2000 0 -2000 0 0
-2000z m3280 1290 l0 -290 -899 0 c-810 0 -899 -2 -905 -16 -3 -9 -6 -172 -6
-364 0 -308 2 -349 16 -354 9 -3 276 -6 595 -6 l579 0 0 -280 0 -280 -592 -2
-593 -3 0 -375 0 -375 912 -3 913 -2 0 -290 0 -290 -1245 0 -1245 0 0 1610 0
1610 1235 0 1235 0 0 -290z"/>
</g>
</svg>
